<?xml version="1.0" standalone="no"?>
<!DOCTYPE svg PUBLIC "-//W3C//DTD SVG 20010904//EN"
 "http://www.w3.org/TR/2001/REC-SVG-20010904/DTD/svg10.dtd">
<svg version="1.0" xmlns="http://www.w3.org/2000/svg"
 width="176.000000pt" height="176.000000pt" viewBox="0 0 176.000000 176.000000"
 preserveAspectRatio="xMidYMid meet">
<metadata>
Created by potrace 1.11, written by Peter Selinger 2001-2013
</metadata>
<g transform="translate(0.000000,176.000000) scale(0.100000,-0.100000)"
fill="#000000" stroke="none">
<path d="M625 1526 c-84 -20 -147 -56 -211 -120 -102 -103 -147 -227 -147
-406 0 -64 7 -130 16 -167 52 -200 189 -328 383 -359 21 -3 40 -7 42 -9 2 -2
3 -45 3 -96 0 -234 1 -224 -25 -252 -22 -24 -29 -26 -75 -20 -59 7 -81 -6 -81
-47 0 -42 17 -50 90 -42 87 8 231 7 306 -3 60 -7 62 -7 79 19 15 22 16 31 6
52 -10 24 -15 25 -64 21 -65 -5 -94 7 -106 47 -14 46 -12 316 2 317 7 0 108 1
225 2 206 2 212 1 213 -18 2 -42 -1 -271 -4 -285 -1 -8 -10 -26 -20 -40 -15
-22 -23 -24 -80 -22 -58 2 -65 0 -74 -20 -23 -50 19 -87 82 -73 53 12 238 13
303 2 68 -12 83 -6 96 39 11 36 -19 57 -73 51 -52 -6 -100 13 -103 41 0 9 -2
163 -3 342 -3 405 -4 402 108 395 40 -2 51 1 62 19 19 29 8 65 -21 72 -14 4
-59 3 -102 -2 -109 -11 -148 -11 -227 1 -38 6 -78 9 -87 7 -30 -6 -76 -86 -83
-144 -13 -110 -66 -184 -158 -223 -65 -27 -66 -25 -65 75 0 78 3 91 17 89 39
-4 77 3 95 16 24 18 31 100 12 130 -7 11 -16 35 -19 54 -8 38 -31 60 -64 61
-19 0 -23 6 -23 29 0 37 -16 49 -74 55 -41 5 -51 2 -72 -19 -13 -13 -24 -33
-24 -45 0 -12 -7 -20 -18 -20 -31 0 -62 -29 -62 -58 0 -15 -7 -38 -16 -50 -22
-32 -21 -108 2 -134 15 -16 29 -19 71 -16 l53 3 0 -97 c0 -106 5 -100 -65 -83
-82 21 -167 91 -205 171 -45 97 -57 248 -29 369 18 78 76 182 125 222 93 76
257 93 368 39 95 -47 126 -107 126 -246 0 -96 13 -120 62 -120 51 0 55 17 56
239 1 117 -3 212 -9 223 -14 25 -63 24 -89 -4 -11 -12 -20 -26 -20 -30 0 -5
-16 3 -35 18 -74 56 -250 80 -370 50z m638 -677 c15 -21 18 -44 19 -140 0 -63
0 -121 -1 -130 -1 -14 -18 -16 -116 -16 l-116 1 40 40 c44 46 76 105 86 156 3
19 8 44 10 55 2 11 4 30 4 43 1 19 6 22 28 19 15 -2 35 -15 46 -28z"/>
</g>
</svg>
